PathFileType	4	(X/Y/Z)	D:\TRACE\v60_Jaco2_6-2-23\BothDRS_Motion3_8-platform.trc
DataRate	CameraRate	NumFrames	NumMarkers	Units	OrigDataRate	OrigDataStartFrame	OrigNumFrames
100.00	100.00	      36	5	mm	100.00	876	      7000
Frame#	Time	Left_Front			Right_Front			Left_Aft			Right_Aft			Post			
		X1	Y1	Z1	X2	Y2	Z2	X3	Y3	Z3	X4	Y4	Z4	X5	Y5	Z5	

876	8.750	-770.32422	-16.70128	-656.37268	800.26709	-17.70807	-633.78503	-700.43903	29.06820	479.32916	713.25360	29.52731	581.46997	25.24487	1267.53845	-1019.89648	
877	8.760	-770.15643	-15.87142	-656.19897	800.21985	-17.48592	-633.76843	-700.45245	29.00110	479.36511	713.30444	29.43659	581.59399	25.67767	1268.01599	-1019.29150	
878	8.770	-770.38110	-15.51993	-656.44659	800.29260	-17.34625	-633.74384	-700.44434	28.98755	479.45071	713.39050	29.41342	581.70227	25.68286	1268.45923	-1018.77448	
879	8.780	-770.34869	-15.40421	-656.42291	800.39923	-17.45140	-633.67542	-700.43481	28.96150	479.48157	713.43170	29.27949	581.77417	25.58661	1268.80164	-1018.25226	
880	8.790	-770.30634	-15.81666	-656.72235	800.57336	-17.38401	-633.61078	-700.62854	28.85401	479.41574	713.46344	29.06257	581.86194	25.53516	1269.06519	-1017.93140	
881	8.800	-770.14783	-15.14136	-656.36047	800.77197	-16.84283	-633.60474	-700.56140	28.71262	479.48987	713.66736	28.85141	582.47223	25.39194	1269.18091	-1017.60266	
882	8.810	-769.86914	-14.83794	-656.23260	800.93231	-16.59029	-633.54102	-700.41656	28.68902	479.37338	713.69672	28.63832	582.56006	25.88826	1269.59094	-1017.46411	
883	8.820	-769.80463	-14.68411	-656.25391	801.12085	-16.40475	-633.50232	-700.33502	28.66714	479.33557	714.18439	28.71091	582.49939	26.19841	1270.08862	-1017.23267	
884	8.830	-769.74554	-14.60674	-656.22656	801.23267	-16.34599	-633.39197	-700.12891	28.50697	479.39185	713.99268	28.58360	582.65991	26.31073	1270.40039	-1016.91138	
885	8.840	-769.75006	-14.48258	-656.18634	801.31012	-16.09484	-633.32849	-700.03003	28.36162	479.42615	713.99707	28.41884	582.62952	26.39374	1270.41174	-1016.49774	
886	8.850	-769.68402	-14.40406	-656.16370	801.41418	-16.08971	-633.32214	-699.95776	28.24923	479.42282	714.40527	28.39408	582.56335	26.53042	1270.50708	-1016.25031	
887	8.860	-769.41919	-14.38596	-656.01593	801.51111	-16.10205	-633.32239	-699.81085	27.86267	479.78702	714.55353	28.28626	582.58044	26.52567	1270.55933	-1016.09100	
888	8.870	-769.17700	-14.25248	-655.89185	801.61798	-15.97234	-633.25488	-699.49329	27.84776	479.80521	714.74402	28.30276	582.64264	26.65137	1270.69214	-1015.77112	
889	8.880	-768.90509	-14.14948	-655.83270	801.83850	-15.78943	-633.29724	-699.36041	27.87745	479.86633	714.93561	28.30305	582.67517	26.81730	1270.86194	-1015.61591	
890	8.890	-768.96362	-14.01329	-655.85626	802.00098	-15.68287	-633.30194	-699.26996	27.85859	479.84225	715.15259	28.27973	582.75018	26.87977	1271.00403	-1015.48566	
891	8.900	-768.83801	-13.93910	-655.66235	802.10541	-15.73414	-633.24640	-699.19012	27.78271	479.89935	715.38177	28.09102	582.72668	27.11701	1271.13477	-1015.37103	
892	8.910	-768.64386	-13.84404	-655.47351	802.24432	-15.62872	-633.20929	-699.02716	27.61889	479.95657	715.53107	28.03526	582.74585	27.13177	1271.38550	-1015.19482	
893	8.920	-768.25598	-13.80390	-655.23694	802.43347	-15.39438	-633.29114	-698.84497	27.49185	480.02545	715.80243	28.01068	582.71899	27.49437	1271.67761	-1014.93390	
894	8.930	-767.76154	-13.99649	-655.72479	802.72845	-15.46669	-633.64075	-698.61591	27.39356	480.03159	715.82715	27.94436	582.73535	27.63588	1272.03125	-1014.82599	
895	8.940	-767.57251	-13.94646	-655.81122	802.97827	-15.35513	-633.61908	-698.34845	27.35759	480.07492	716.00769	27.88765	582.74878	27.74852	1272.27942	-1014.67389	
896	8.950	-767.45801	-13.86135	-655.82672	803.11548	-15.10524	-633.04858	-698.17938	27.22493	480.21802	716.23669	27.72481	582.82538	27.99516	1272.22937	-1014.43890	
897	8.960	-767.28998	-13.83377	-655.77002	803.16223	-15.02755	-633.01984	-698.17102	27.49392	480.13010	716.40845	27.60072	582.89734	28.26045	1272.22498	-1014.12994	
898	8.970	-766.93286	-13.72347	-655.68982	803.25958	-15.10735	-633.12677	-697.93469	27.44423	480.14313	716.68976	27.56456	582.95453	28.38945	1272.25549	-1013.98505	
899	8.980	-766.75507	-13.57512	-655.57239	803.68341	-14.93147	-632.98602	-697.74237	27.55201	480.09137	716.91321	27.57763	583.02374	28.55183	1272.37341	-1013.81128	
900	8.990	-766.56451	-13.44361	-655.54236	804.02466	-14.79734	-633.07635	-697.56891	27.56423	480.03854	717.14063	27.53588	582.99774	28.75806	1272.43994	-1013.63312	
901	9.000	-766.05334	-13.39354	-655.14160	804.24969	-14.77276	-633.06403	-697.35944	27.61581	480.03098	717.32251	27.42875	582.96027	29.00814	1272.51184	-1013.41473	
902	9.010	-765.90387	-13.31965	-655.09686	804.39850	-14.81862	-633.06104	-696.97992	27.23812	480.11374	717.51648	27.35811	582.90118	29.32437	1272.49402	-1013.13629	
903	9.020	-765.58936	-13.42121	-655.09454	804.57025	-14.84871	-633.03101	-696.69415	27.16904	480.15323	717.74591	27.37615	582.89990	29.70997	1272.46155	-1013.01599	
904	9.030	-765.82050	-13.54506	-656.05994	804.87744	-14.76176	-633.09711	-696.36884	27.12692	480.18030	718.02521	27.47406	582.86749	29.80483	1272.40454	-1012.76196	
905	9.040	-765.63300	-13.49253	-655.90851	805.18188	-14.74310	-633.10919	-696.20697	27.23977	480.10263	718.12836	27.50756	582.88550	30.02864	1272.54102	-1012.80646	
906	9.050	-765.47986	-13.23884	-655.71436	805.42255	-14.61476	-633.07977	-695.91040	27.23692	480.20538	718.29791	27.40508	582.97864	30.46986	1272.77197	-1013.17548	
907	9.060	-765.20990	-13.12429	-655.61035	805.65796	-14.59156	-633.03381	-695.56763	27.15580	480.19031	718.73425	27.44079	582.96814	30.61780	1272.80579	-1013.36060	
908	9.070	-764.79346	-13.19327	-655.62000	805.80554	-14.59876	-632.97369	-695.29730	27.09167	480.23145	719.03687	27.34654	583.03143	30.72156	1272.80933	-1013.43896	
909	9.080	-764.51575	-13.19936	-655.50446	806.03851	-14.48764	-632.96997	-695.22290	27.06706	480.25888	719.30096	27.23869	583.07422	31.09624	1272.90491	-1013.50812	
910	9.090	-764.20532	-13.24571	-655.48059	806.40710	-14.35437	-632.93695	-694.93439	27.06765	480.24594	720.23273	27.47046	583.21167	31.50821	1273.06226	-1013.45331	
911	9.100	-763.85657	-13.26595	-655.50116	806.69818	-14.27006	-632.91901	-694.62048	27.07047	480.24667	719.74188	27.11612	583.06482	31.79806	1273.16260	-1013.46173	
